<?xml version="1.0" standalone="no"?>
<!DOCTYPE svg PUBLIC "-//W3C//DTD SVG 1.1//EN" "http://www.w3.org/Graphics/SVG/1.1/DTD/svg11.dtd" >
<!--
2013-9-30: Created.
-->
<svg>
<metadata>
Created by iconfont
</metadata>
<defs>

<font id="iconfont" horiz-adv-x="1024" >
  <font-face
    font-family="iconfont"
    font-weight="500"
    font-stretch="normal"
    units-per-em="1024"
    ascent="896"
    descent="-128"
  />
    <missing-glyph />
    
    <glyph glyph-name="x" unicode="x" horiz-adv-x="1001"
d="M281 543q-27 -1 -53 -1h-83q-18 0 -36.5 -6t-32.5 -18.5t-23 -32t-9 -45.5v-76h912v41q0 16 -0.5 30t-0.5 18q0 13 -5 29t-17 29.5t-31.5 22.5t-49.5 9h-133v-97h-438v97zM955 310v-52q0 -23 0.5 -52t0.5 -58t-10.5 -47.5t-26 -30t-33 -16t-31.5 -4.5q-14 -1 -29.5 -0.5
t-29.5 0.5h-32l-45 128h-439l-44 -128h-29h-34q-20 0 -45 1q-25 0 -41 9.5t-25.5 23t-13.5 29.5t-4 30v167h911zM163 247q-12 0 -21 -8.5t-9 -21.5t9 -21.5t21 -8.5q13 0 22 8.5t9 21.5t-9 21.5t-22 8.5zM316 123q-8 -26 -14 -48q-5 -19 -10.5 -37t-7.5 -25t-3 -15t1 -14.5
t9.5 -10.5t21.5 -4h37h67h81h80h64h36q23 0 34 12t2 38q-5 13 -9.5 30.5t-9.5 34.5q-5 19 -11 39h-368zM336 498v228q0 11 2.5 23t10 21.5t20.5 15.5t34 6h188q31 0 51.5 -14.5t20.5 -52.5v-227h-327z" />
    

    
    <glyph glyph-name="xingmingyonghumingnicheng" unicode="&#58915;" d="M652.3 333.3C741.6 382.7 802 477.8 802 587c0 160.2-129.8 290-290 290-160.2 0-290-129.8-290-290 0-109.2 60.4-204.3 149.7-253.7C184 273.8 48 98.3 48-109l58 0c0 224.2 181.8 406 406 406 224.2 0 406-181.8 406-406l58 0C976 98.3 840 273.8 652.3 333.3zM280 587c0 128.1 103.9 232 232 232 128.1 0 232-103.9 232-232 0-128.1-103.9-232-232-232C383.9 355 280 458.9 280 587z"  horiz-adv-x="1024" />

    
    <glyph glyph-name="weibiaoti6" unicode="&#58945;" d="M721.92 714.24 302.08 714.24 302.08 814.08c0 38.4 30.72 69.12 69.12 69.12l279.04 0c38.4 0 69.12-30.72 69.12-69.12L719.36 714.24zM353.28 765.44l317.44 0L670.72 814.08c0 10.24-7.68 17.92-17.92 17.92L371.2 832c-10.24 0-17.92-7.68-17.92-17.92L353.28 765.44zM305.852621 74.24c-15.36 0-25.6 10.24-25.6 25.6L280.252621 414.72c0 15.36 10.24 25.6 25.6 25.6s25.6-10.24 25.6-25.6L331.452621 99.84C331.452621 87.04 321.212621 74.24 305.852621 74.24zM523.452621 74.24c-15.36 0-25.6 10.24-25.6 25.6L497.852621 414.72c0 15.36 10.24 25.6 25.6 25.6 15.36 0 25.6-10.24 25.6-25.6L549.052621 99.84C549.052621 87.04 538.812621 74.24 523.452621 74.24zM718.012621 74.24c-15.36 0-25.6 10.24-25.6 25.6L692.412621 414.72c0 15.36 10.24 25.6 25.6 25.6 15.36 0 25.6-10.24 25.6-25.6L743.612621 99.84C743.612621 87.04 733.372621 74.24 718.012621 74.24zM965.12 698.88 58.88 698.88c-15.36 0-25.6 10.24-25.6 25.6s10.24 25.6 25.6 25.6l903.68 0c15.36 0 25.6-10.24 25.6-25.6S977.92 698.88 965.12 698.88zM737.28-117.76 286.72-117.76c-125.44 0-189.44 69.12-189.44 204.8L97.28 578.56c0 15.36 10.24 25.6 25.6 25.6l778.24 0c15.36 0 25.6-10.24 25.6-25.6l0-491.52C926.72-48.64 862.72-117.76 737.28-117.76zM148.48 552.96l0-465.92c0-107.52 40.96-153.6 138.24-153.6l450.56 0c97.28 0 138.24 46.08 138.24 153.6L875.52 552.96 148.48 552.96z"  horiz-adv-x="1024" />

    
    <glyph glyph-name="shanchu_" unicode="&#58900;" d="M905.92 658.24a32 32 0 0 1-52.48-36.48A416 416 0 1 0 96 384a418.56 418.56 0 0 0 297.28 398.72 32 32 0 1 1-18.24 61.44A480 480 0 1 1 992 384a477.12 477.12 0 0 1-86.08 274.24zM630.72 782.72A413.76 413.76 0 0 0 768 710.72a32 32 0 0 1 39.68 50.24 476.8 476.8 0 0 1-160 83.2 32 32 0 0 1-18.24-61.44zM489.28 809.28a36.8 36.8 0 0 1 10.56-6.72 30.08 30.08 0 0 1 24.32 0 37.12 37.12 0 0 1 10.56 6.72A32 32 0 0 1 544 832a33.6 33.6 0 0 1-9.28 22.72A32 32 0 0 1 505.6 864a20.8 20.8 0 0 1-5.76-1.92 23.68 23.68 0 0 1-5.76-2.88l-4.8-3.84a32 32 0 0 1-6.72-10.56A32 32 0 0 1 480 832a32 32 0 0 1 2.56-12.16 37.12 37.12 0 0 1 6.72-10.56zM726.72 598.72a32 32 0 0 1-45.12 0l-169.6-169.6-169.28 169.6A32 32 0 0 1 297.6 553.6l169.28-169.6-169.6-169.28a32 32 0 1 1 45.12-45.12l169.6 169.28 169.28-169.28a32 32 0 0 1 45.12 45.12L557.12 384l169.28 169.28a32 32 0 0 1 0.32 45.44z"  horiz-adv-x="1024" />

    
    <glyph glyph-name="nan" unicode="&#58880;" d="M941.307 774.521c-1.308 19.881-18.355 37.067-38.075 38.385L594.05 824.0550000000001c-19.719999999999995 1.318-34.645-13.728-33.337-33.608 1.309-19.879 18.355-37.063 38.075-38.385l221.13-7.973L649.7089999999998 572.5c-61.168000000000006 51.789-139.93 83.056-225.977 83.056-194.503 0-352.178-159.317-352.178-355.846 0-196.527 157.675-355.844 352.178-355.844 194.505 0 352.178 159.317 352.178 355.844 0 82.07899999999998-27.775 157.449-73.979 217.652l171.14 172.528 7.884999999999998-222.27999999999997c1.309-19.879 18.355-37.067 38.075-38.385 19.722-1.32 34.64699999999999 13.726 33.337 33.606l-11.061 311.69zM423.731 17.235000000000127c-153.736 0-278.807 126.71799999999998-278.807 282.474 0 155.758 125.07199999999999 282.476 278.807 282.476s278.807-126.71799999999998 278.807-282.476c0-155.756-125.071-282.474-278.807-282.474z"  horiz-adv-x="1024" />

    
    <glyph glyph-name="shuliang" unicode="&#58921;" d="M910.051556 458.581333c0 27.363556-12.288 52.224-36.977778 74.581334 22.641778 22.414222 36.977778 47.217778 36.977778 74.638222 0 96.938667-166.343111 174.08-369.607112 174.08s-369.607111-77.141333-369.607111-174.08c0-27.363556 12.288-52.224 36.977778-74.638222-24.689778-22.357333-36.977778-47.217778-36.977778-74.524445 0-27.420444 12.288-52.280889 36.977778-74.638222-24.689778-22.357333-36.977778-47.217778-36.977778-74.581333s12.288-52.224 36.977778-74.581334c-24.689778-22.414222-36.977778-47.217778-36.977778-74.638222 0-96.938667 166.343111-174.08 369.607111-174.08s369.607111 77.141333 369.607112 174.08c0 27.363556-12.288 52.224-36.977778 74.638222 22.641778 22.357333 36.977778 47.217778 36.977778 74.524445 0 27.420444-12.288 52.280889-36.977778 74.638222 24.689778 22.357333 36.977778 47.217778 36.977778 74.581333z m-41.073778-149.162666c0-69.632-147.854222-124.359111-328.533334-124.359111s-328.533333 54.727111-328.533333 124.359111c0 17.408 10.24 34.816 26.680889 49.720889 67.754667-44.771556 176.583111-74.581333 301.852444-74.581334s234.097778 29.809778 301.852445 74.524445c16.440889-14.848 26.737778-32.256 26.737778-49.664zM540.444444 334.279111c-180.679111 0-328.533333 54.670222-328.533333 124.302222 0 17.408 10.24 34.816 26.680889 49.720889 67.754667-44.714667 176.583111-74.524444 301.852444-74.524444s234.097778 29.809778 301.852445 74.524444c16.440889-14.904889 26.737778-32.312889 26.737778-49.720889 0-69.632-147.911111-124.302222-328.590223-124.302222z m0 397.824c180.679111 0 328.533333-54.727111 328.533334-124.302222 0-69.632-147.854222-124.359111-328.533334-124.359111S211.911111 538.168889 211.911111 607.800889c0 69.575111 147.854222 124.302222 328.533333 124.302222z m0-696.206222c-180.679111 0-328.533333 54.727111-328.533333 124.302222 0 17.408 10.24 34.816 26.680889 49.720889 67.754667-44.714667 176.583111-74.524444 301.852444-74.524444s234.097778 29.809778 301.852445 74.524444c16.440889-14.904889 26.737778-32.312889 26.737778-49.720889 0-69.575111-147.911111-124.302222-328.590223-124.302222z"  horiz-adv-x="1024" />

    
    <glyph glyph-name="shoucang" unicode="&#58898;" d="M992.12066 395.918909c30.237461 30.237461 39.541296 76.756633 25.585544 116.297928-13.955751 41.867254-46.519171 72.104715-88.386426 79.082592l-186.076684 32.563419c-20.933627 4.651917-37.215337 16.28171-46.519172 34.889379l-88.386425 172.120933C592.055787 872.740414 554.84045 896 512.973196 896c-41.867254 0-79.082591-23.259586-100.016218-62.800881L326.896511 661.078185c-9.303834-18.607668-27.911503-32.56342-46.519171-34.889378L94.300655 593.625387c-41.867254-6.977876-74.430674-37.215337-88.386425-79.082591-13.955751-41.867254-2.325959-86.060467 25.585544-116.297928l130.253679-139.557514c13.955751-13.955751 20.933627-37.215337 18.607669-58.148964l-27.911503-193.05456C145.471743-34.383424 164.079412-78.576637 196.642832-104.162181c18.607668-13.955751 41.867254-23.259586 65.12684-23.259586 16.28171 0 34.889378 4.651917 48.845129 11.629793l169.794975 86.060467c18.607668 9.303834 39.541296 9.303834 58.148964 0l169.794975-86.060467c37.215337-18.607668 81.40855-16.28171 116.297928 9.303834 32.56342 25.585544 51.171088 67.452798 44.193213 111.646011L843.259312 198.212432c-2.325959 20.933627 4.651917 41.867254 18.607668 58.148964l130.25368 139.557513z"  horiz-adv-x="1024" />

    
    <glyph glyph-name="bofang" unicode="&#58881;" d="M512 896C230.4 896 0 665.6 0 384s230.4-512 512-512 512 230.4 512 512S793.6 896 512 896z m0-981.333c-258.133 0-469.333 211.2-469.333 469.333S253.867 853.333 512 853.333 981.333 642.133 981.333 384 770.133-85.333 512-85.333zM672 454.4L501.333 567.467c-57.6 38.4-106.666 12.8-106.666-57.6v-256c0-70.4 46.933-96 106.666-57.6L672 309.333C729.6 352 729.6 416 672 454.4z"  horiz-adv-x="1024" />

    
    <glyph glyph-name="Username" unicode="&#58909;" d="M752.6 495.7h-26.7V602.3c0 128.2-88.8 228.6-214.9 228.6-126.6 0-212.9-102.5-212.9-228.6v-106.6h-26.7c-59 0-106.9-50.1-106.9-111.7v-335.2c0-61.6 48-111.7 106.9-111.7h481.2c59 0 106.9 50.1 106.9 111.7V384c0.1 61.6-47.9 111.7-106.9 111.7z m-401 106.6C351.6 697.5 414 775 511 775c96.1 0 161.4-75.9 161.4-172.7v-106.6H351.6V602.3z m401-609.3H271.4c-29.5 0-53.4 25-53.4 55.8V384c0 30.8 24 55.9 53.4 55.9h481.2c29.5 0 53.5-25 53.5-55.9v-335.2c0-30.8-24-55.8-53.5-55.8zM512 328.1c-29.5 0-53.5-25-53.5-55.9 0-20.7 10.7-38.7 26.7-48.3v-91.3c0-15.4 11.9-27.9 26.7-27.9 14.8 0 26.8 12.5 26.8 27.9v91.3c16 9.7 26.7 27.7 26.7 48.3 0.1 30.9-23.9 55.9-53.4 55.9z"  horiz-adv-x="1024" />

    
    <glyph glyph-name="dianhua" unicode="&#59122;" d="M722.5-63.8c-57.7 0-132.2 38.5-184.6 70.8-70.1 43.2-145.6 103.1-212.7 168.5l-0.2 0.2-21.3 21.3c-65.3 67.1-125.1 142.7-168.3 212.9-32.3 52.4-70.7 127-70.7 184.8 0 61.8 44.2 127.5 63.2 152.8 14.8 19.8 66.6 84.3 110.6 84.3 18.1 0 37.5-11.8 63.1-38.4 22.6-23.5 44.3-52.6 58.5-73 19.1-27.3 36.8-55.9 49.7-80.5 21-39.8 23.4-56.9 23.4-66.3 0-18.9-9.9-35.4-29.4-48.8-12.8-8.9-28.2-15.5-43.1-22-10-4.3-26.1-11.3-32.2-16.2 2.1-9.1 11.5-30.9 36.7-68 23.5-34.5 53.9-72 81.4-100.2 28.2-27.5 65.6-57.9 100.1-81.4 37-25.2 58.9-34.6 67.9-36.7 4.9 6.1 11.8 22.2 16.2 32.2 6.4 14.9 13.1 30.3 22 43.2 13.4 19.5 29.9 29.4 48.8 29.4 9.4 0 26.5-2.4 66.3-23.5 24.6-13 53.1-30.7 80.4-49.8 20.3-14.2 49.5-36 72.9-58.6 26.5-25.6 38.3-45.1 38.3-63.2 0-44-64.5-95.9-84.2-110.7-25.5-18.9-91.1-63.1-152.8-63.1z m-360.3 277c64.3-62.7 136.5-120 203.4-161.2 64.8-40 122-62.9 156.9-62.9 31.1 0 75.3 19 118.5 50.8 18.9 13.9 36.1 29.5 48.4 43.7 11.6 13.4 15.8 22.1 16.9 25.6-4.5 9.6-31 39.7-93.1 82.5-24.3 16.8-49.5 32.2-70.8 43.5-26.8 14.1-38 16.5-40.5 16.9-1-0.7-3.9-3.1-8.4-10.6-5-8.3-9.7-19.4-14.4-30.1-5.7-13.1-11.6-26.8-18.8-37.7-11.7-17.9-26.1-26.9-42.8-26.9h-0.9c-8.1 0.2-32.8 0.7-99.8 46.4-37 25.2-77.2 57.9-107.5 87.5l-0.5 0.5c-29.5 30.3-62.2 70.5-87.4 107.6-45.7 67.1-46.2 91.8-46.4 99.9-0.4 17 8.6 31.6 26.6 43.6 11 7.3 24.7 13.2 38 19 10.7 4.6 21.7 9.4 30 14.4 7.4 4.4 9.9 7.4 10.6 8.4-0.4 2.6-2.8 13.7-16.9 40.6-11.2 21.4-26.6 46.5-43.4 70.9-42.8 62.1-72.8 88.7-82.4 93.2-3.5-1.1-12.2-5.3-25.6-16.9-14.2-12.3-29.7-29.6-43.7-48.5-31.8-43.2-50.7-87.5-50.7-118.6 0-34.9 22.9-92.1 62.9-157 41.2-66.9 98.4-139.2 161-203.6l20.8-21z m0 0"  horiz-adv-x="1024" />

    
    <glyph glyph-name="bianji" unicode="&#59226;" d="M95.209369-74.115948h838.651448v-53.884052H95.209369v53.884052z m320.142425 109.087672c1.324643 1.177461 3.537457 3.319221 6.684119 6.856679a1.882922 1.882922 0 0 1-0.030451 0.228386l380.88823 391.647785-35.435476 36.440378-354.578074-364.576339-4.714918-4.105887c-37.836075 120.227871-130.109406 215.125112-247.068809 254.016842l4.009457 4.872251 451.084173 463.83323 247.799646-254.783206-0.213161-0.228387 35.425326-36.440378 34.669111 35.643562-318.675674 327.669037L102.553273 368.903634a0.375569 0.375569 0 0 1-0.030452 0.025377l-0.436472-0.497376-6.87698-7.069839 0.497376-0.208086-0.497376-0.568429v-326.887447h318.898986l1.243439 1.27389z m-267.714973 52.620312v215.729068c98.876246-33.821543 176.989597-114.107106 209.912819-215.739218h-209.912819v0.01015z m0 0"  horiz-adv-x="1024" />

    
    <glyph glyph-name="guanzhu" unicode="&#58882;" d="M923.533915 109.119815c-12.603733-60.619711-65.416624-121.240418-153.040776-174.652301-165.650488 94.225015-156.049685 192.055937-155.4487 200.457762 0 10.200791 3.600924 44.415053 21.005557 63.017669 9.600804 10.200791 21.604549 15.005678 38.410191 15.005678 55.219819 0 69.021535-54.619832 70.821499-60.61971 3.001933-12.602737 13.206711-21.604549 24.606482-21.604549 11.404754 1.198979 22.20952 8.401824 25.812438 20.407563 0.598991 2.396962 16.803649 61.213719 72.618472 61.817693 31.211332 0 45.613036-19.20659 52.21689-38.415174 3.601921-10.799783 13.202724-18.002628 24.608475-18.002628h1.19898c17.403637 0 30.008366 16.803649 24.608475 33.609291-13.202724 40.813133-45.614033 79.223323-104.43079 79.223323-45.014045-0.598991-76.22438-24.007491-96.026972-50.413936-19.208584 27.009423-50.419916 50.413936-96.63294 50.413936-30.607358 0-55.813827-10.799783-75.022411-31.806337-35.407261-38.415174-36.012232-97.231931-36.012233-99.029901-0.598991-6.004863-19.201607-145.842914 196.261833-262.277449 3.601921-1.802954 7.802833-3.001933 11.404754-3.001933 4.200912 0 8.401824 1.198979 11.998762 3.601921 110.433659 63.616661 175.855267 138.639072 191.460933 220.265337 2.99695 16.204657-9.605787 31.206349-25.812438 31.206349-11.398774 1.203962-22.205533-7.197862-24.606481-19.202604z m0 0M770.492143 584.458758c0 171.649371-128.439277 310.893414-286.285936 310.893414-157.845662 0-286.284939-139.244043-286.284939-310.893414 0-121.235435 64.216648-226.264219 157.243681-277.283126C183.513584 247.158899 41.87258 77.908483 41.87258-94.340876c0-15.604669 11.404754-28.209399 25.807454-28.2094 14.40569 0 25.805461 12.603733 25.805461 28.2094 0 182.455134 196.860824 367.906221 390.720712 367.90622 157.846659-0.598991 286.285936 139.244043 286.285936 310.893414zM484.206207 329.984143c-129.042255 0-234.072036 114.03259-234.072036 254.474615 0 140.443022 105.029781 254.474615 234.072036 254.474616 129.038268 0 234.068049-114.030597 234.068049-254.474616 0-140.442025-105.030778-254.474615-234.068049-254.474615z m0 0"  horiz-adv-x="1024" />

    
    <glyph glyph-name="jianjie" unicode="&#58947;" d="M872.143118-128h-6.835903L511.99738 142.914421l-353.309834-270.914421H151.851643c-44.831369 0-81.30167 36.458148-81.30167 81.30167V814.69833C70.549973 859.529699 107.008121 896 151.851643 896h720.291475c44.831369 0 81.30167-36.458148 81.30167-81.30167v-861.39666c0-44.825293-36.458148-81.30167-81.30167-81.30167z m-360.145738 321.71885l366.367929-280.928259a41.051875 41.051875 0 0 1 34.762844 40.511079V814.69833a41.033645 41.033645 0 0 1-40.985035 40.985035H151.851643a41.033645 41.033645 0 0 1-40.985035-40.985035v-861.39666a41.051875 41.051875 0 0 1 34.762844-40.511079zM270.109722 595.651701l520.063327 0 0-44.34526-520.063327 0 0 44.34526ZM272.127073 367.873346l520.063327 0 0-44.345261-520.063327 0 0 44.345261Z"  horiz-adv-x="1024" />

    
    <glyph glyph-name="bofang1" unicode="&#58952;" d="M1062.183553 583.723659c-25.751698 60.975285-62.603266 115.586645-109.518717 162.502096C905.749386 793.141205 850.990027 830.140772 790.16274 855.89247 727.115479 882.532158 660.072265 896 591.105073 896c-69.11519 0-136.010406-13.467842-199.057667-40.255528-60.975285-25.751698-115.586645-62.603266-162.502096-109.518717-46.91545-46.91545-83.915017-101.674808-109.518717-162.502096-26.639688-63.047261-40.255528-129.942477-40.255528-199.057667s13.61584-136.010406 40.255528-199.057667c25.751698-60.975285 62.603266-115.586645 109.518717-162.502096 46.91545-46.91545 101.674808-83.915017 162.502096-109.518716 63.047261-26.639688 129.942477-40.255528 199.057667-40.255529s136.010406 13.61584 199.057667 40.255529c60.975285 25.751698 115.586645 62.603266 162.502096 109.518716 46.91545 46.91545 83.915017 101.674808 109.518717 162.502096 26.639688 63.047261 40.255528 129.942477 40.255528 199.057667s-13.467842 136.010406-40.255528 199.057667zM591.105073-73.240642C338.620032-73.240642 133.050441 132.328949 133.050441 384.81399S338.620032 842.720624 591.105073 842.720624s457.906634-205.421593 457.906634-458.054632c0-252.485041-205.421593-457.906634-457.906634-457.906634z m0 0M465.750542 544.800116h48.839428v-336.400058h-48.839428zM661.404249 545.24411h48.839428v-336.400057h-48.839428z"  horiz-adv-x="1271" />

    
    <glyph glyph-name="qq" unicode="&#58929;" d="M647.8-30c-50 0-96.8 12.2-130.2 33.6-3.8-0.1-7.5-0.1-11.2 0C473-17.9 426.2-30 376.1-30c-49.2 0-94.5 11.2-127.5 31.6-37.1 22.9-57.6 56-57.6 93.1 0 12.7 2.4 24.9 7.1 36.4-32.7 12.3-53.9 44.6-59.6 91.5-4.5 36.6 0.5 82.1 13.7 124.8 12.7 40.7 34.9 73.2 53.6 95.2 0.3 23.6 6 46.5 16.9 68.3 3.1 158.3 131.7 286.2 289.4 286.2 157.4 0 285.8-127.4 289.3-285.4 11.3-22.3 17.2-45.8 17.3-69.9 18.4-21.7 40.2-53.7 52.7-93.7 0.1-0.2 0.1-0.4 0.2-0.7 17.3-55.6 20.2-113 7.8-153.6-4.4-14.5-19.7-22.6-34.2-18.2-14.5 4.4-22.6 19.7-18.2 34.2 9.1 29.9 6.2 76.2-7.5 120.8-0.1 0.2-0.1 0.4-0.2 0.6-11.3 36.3-32.6 64.7-48.6 82.2-5 5.5-7.6 12.9-7.1 20.4 0.2 2.7 0.3 4.8 0.3 6.8 0 17.4-4.6 34.5-13.8 50.8-2.3 4.1-3.5 8.7-3.5 13.4v0.3c0 130.9-105.3 237.3-234.6 237.3-129.4 0-234.6-106.5-234.6-237.3v-0.9c0-4.6-1.2-9.2-3.4-13.3-8.9-16.1-13.5-33-13.5-50.2 0-2 0.1-4.1 0.2-6.1 0.5-7.5-2.1-14.9-7.1-20.4-16.1-17.6-37.7-46.2-49.1-82.8C183 261.6 189.2 192 218 182.2c10.9-3.7 21.2 1.4 27.9 6.3 6.1 4.4 13.7 6.2 21.1 4.8 7.4-1.3 13.9-5.7 18-12 0.4-0.6 0.7-1.1 1.1-1.6 4.2-6.2 5.7-13.9 4.1-21.2-1.6-7.3-6.1-13.7-12.5-17.6-14.5-8.9-31.8-24.1-31.8-46.2 0-22.3 17.2-37.6 31.6-46.5 24.5-15.1 59.5-23.4 98.7-23.4 42.2 0 81.8 10.7 105.9 28.6 5.1 3.8 11.5 5.7 17.8 5.3 8.4-0.5 15.6-0.5 24.2 0 6.4 0.4 12.7-1.5 17.8-5.4 24.1-17.9 63.7-28.6 105.9-28.6 25.9 0 50.6 3.7 71.3 10.7 14.3 4.9 29.9-2.8 34.8-17.1 4.9-14.3-2.8-29.9-17.1-34.8-26.8-8.9-56.7-13.5-89-13.5zM512.7 377.2c-60.1 0-119.5 10.2-176.6 30.4-36.6 12.9-71.5 29.7-103.9 49.9-12.8 8-16.8 24.9-8.8 37.7 8 12.8 24.9 16.8 37.7 8.8 53.4-33.3 140.9-72.8 254.6-72 43.3 0.3 86.4 6.5 128.2 18.6 14.5 4.2 29.7-4.2 33.9-18.7 4.2-14.5-4.2-29.7-18.7-33.9-46.6-13.5-94.7-20.4-143.1-20.8h-3.3zM288.7 232.7h-1.1c-15.1 0.6-26.9 13.3-26.3 28.4 1.2 30.5 7.6 60.2 19.1 88.2 15.3 37.1 39.5 70.7 70.3 97.2 11.4 9.9 28.7 8.6 38.6-2.8 9.9-11.4 8.6-28.7-2.8-38.6-24.3-21-43.4-47.4-55.4-76.6-9.1-22-14.1-45.4-15-69.4-0.6-14.8-12.7-26.4-27.4-26.4z"  horiz-adv-x="1024" />

    
    <glyph glyph-name="nv" unicode="&#58883;" d="M887.394 761.927c-65.748 64.498-152.677 100.027-244.767 100.027-94.623 0-183.228-37.19-249.488-104.727-125.363-127.78-132.38-328.123-22.52-464.144l-84.835-86.477-191.63 188.002-56.764-57.859 191.623-188.009-134.352-136.946 57.859-56.764 134.352 136.946 191.623-188.003 56.764 57.859-191.617 188.002 84.829 86.47c61.053-47.504 135.69-73.367 214.135-73.367 94.629 0 183.234 37.196 249.495 104.734 134.967 137.581 132.853 359.295-4.708 494.256zM834.244 324.43600000000004c-50.887-51.874-118.945-80.445-191.636-80.445-70.739 0-137.5 27.288-187.996 76.838-105.659 103.66-107.281 273.96-3.621 379.626 50.895 51.874 118.945 80.438 191.63 80.438 70.739 0 137.5-27.288 188.003-76.832 105.667-103.654 107.287-273.952 3.621-379.626z"  horiz-adv-x="1026" />

    
    <glyph glyph-name="sousuo" unicode="&#58893;" d="M831.992057 125.45060366999996c69.018642 82.92430912 106.78339942 186.33966455 106.78339942 295.11273291 0 255.28041295-208.01435288 463.06277917-463.7756734 463.06277915C219.44674348 883.62611573 11.42222989 675.84374952 11.42222989 420.56333658c0-255.28718644 208.01435288-463.06785952 463.57755313-463.06785952 66.91551989 0 131.52471708 13.97509411 191.91412406 41.55782794 18.02724427 8.23130142 25.88093255 29.29977619 17.63439104 47.10349942-5.70823214 12.41045269-18.03232463 20.87035355-32.33423222 20.87035452a35.37376861 35.37376861 0 0 1-15.03681538-3.33248344c-47.32194008-22.0556887-102.98186227-34.97075467-161.66777387-34.97075465h-0.54186694c-216.23380144 0-392.2356562 175.81050802-392.23565521 391.82756188 0 216.02044111 176.00185477 391.82078842 392.26105505 391.8207894S867.2489862 636.5719238500001 867.2489862 420.55148273c0-101.69831405-38.91622514-198.02198292-109.27260225-271.36709578a35.5143157 35.5143157 0 0 1-9.95342315-24.70745122c0-10.0736498 4.18253752-19.17532575 10.90507753-25.65233213 1.15316086-0.96181411 2.49597533-1.34450761 3.64744406-2.3046286 0.96181411-1.34281448 1.53246811-3.06662935 2.68562897-4.40944481l184.44482241-197.05678158c6.49563273-6.94944731 15.71922844-11.28946417 25.9554399-11.28946513h0.125306c8.80703577 0 17.43457767 3.25628298 24.33661158 9.5673434 7.06798083 6.50748656 11.48250502 15.80728275 11.48250402 26.13662592a35.37715486 35.37715486 0 0 1-9.58427563 24.25533075L832.00391085 125.44552331l-0.01185385 0.00508036z m0 0"  horiz-adv-x="1024" />

    
    <glyph glyph-name="youxiang" unicode="&#58940;" d="M921.6 761.6H102.4C44.8 761.6 0 710.4 0 659.2v-544c0-57.6 44.8-102.4 102.4-102.4h819.2c57.6 0 102.4 44.8 102.4 102.4V659.2c0 51.2-44.8 102.4-102.4 102.4z m70.4-620.8c0-57.6-44.8-102.4-102.4-102.4H134.4c-57.6 0-102.4 44.8-102.4 102.4V627.2c0 57.6 44.8 102.4 102.4 102.4h748.8c57.6 0 102.4-44.8 102.4-102.4l6.4-486.4z m0 0M908.8 236.8l19.2 25.6-224 192 179.2 179.2-25.6 25.6-364.8-371.2-345.6 345.6-19.2-25.6 172.8-172.8-198.4-198.4 25.6-25.6 198.4 198.4 172.8-172.8 25.6 25.6 166.4 166.4 217.6-192z m0 0"  horiz-adv-x="1024" />

    
    <glyph glyph-name="dizhi" unicode="&#58895;" d="M532.48 315.733333c-92.16 0-167.253333 75.093333-167.253333 167.253334s75.093333 167.253333 167.253333 167.253333 167.253333-75.093333 167.253333-167.253333-75.093333-167.253333-167.253333-167.253334z m0 279.893334c-61.44 0-110.933333-49.493333-110.933333-110.933334s49.493333-110.933333 110.933333-110.933333 110.933333 49.493333 110.933333 110.933333c0 59.733333-49.493333 110.933333-110.933333 110.933334z m0-587.093334c-6.826667 0-13.653333 3.413333-18.773333 8.533334-11.946667 10.24-11.946667 29.013333-1.706667 39.253333 75.093333 78.506667 271.36 310.613333 271.36 426.666667 0 138.24-112.64 250.88-250.88 250.88s-250.88-112.64-250.88-250.88c0-66.56 63.146667-179.2 177.493333-320.853334 10.24-11.946667 8.533333-29.013333-3.413333-39.253333-11.946667-10.24-29.013333-8.533333-39.253333 3.413333-128 155.306667-191.146667 276.48-191.146667 356.693334 0 168.96 138.24 307.2 307.2 307.2s307.2-138.24 307.2-307.2c0-163.84-274.773333-453.973333-286.72-465.92-6.826667-5.12-13.653333-8.533333-20.48-8.533334z"  horiz-adv-x="1024" />

    
    <glyph glyph-name="nianling" unicode="&#58928;" d="M942.85283 455.486792c0 235.713208-193.207547 428.920755-428.920755 428.920755S81.14717 695.064151 85.011321 455.486792c0-197.071698 135.245283-367.09434 320.724528-413.46415-27.049057-92.739623-88.875472-115.924528-92.739623-115.924529-7.728302-3.864151-15.456604-11.592453-11.592452-23.184905 0-11.592453 11.592453-15.456604 19.320754-15.456604h386.415095c11.592453 0 19.320755 7.728302 19.320754 19.320754 0 7.728302-7.728302 15.456604-15.456603 19.320755-11.592453 3.864151-65.690566 34.777358-92.739623 115.924529 189.343396 50.233962 324.588679 220.256604 324.588679 413.46415m-301.403773-529.388679H386.415094c27.049057 27.049057 50.233962 65.690566 65.690566 127.516981 7.728302 27.049057 11.592453 57.962264 11.592453 92.739623 0 112.060377-42.50566 189.343396-85.011321 239.577358 23.184906-11.592453 46.369811-23.184906 77.283019-42.50566 7.728302-7.728302 23.184906-3.864151 27.049057 3.864151 19.320755 27.049057 42.50566 46.369811 65.690566 61.826415-3.864151-7.728302-7.728302-15.456604-7.728302-23.184906-7.728302-23.184906-3.864151-46.369811 3.864151-61.826415 3.864151-7.728302 19.320755-11.592453 27.049057-7.728302 19.320755 11.592453 38.641509 15.456604 57.962264 19.320755-34.777358-34.777358-65.690566-92.739623-65.690566-193.207547 0-34.777358 3.864151-65.690566 11.592453-92.739623 11.592453-57.962264 38.641509-100.467925 65.690566-123.65283m-30.913208 154.566038c-3.864151 19.320755-3.864151 38.641509-3.864151 61.826415 0 170.022642 100.467925 193.207547 104.332076 197.071698 11.592453 3.864151 15.456604 11.592453 15.456603 19.320755 0 11.592453-7.728302 19.320755-19.320754 19.320755 0 0-65.690566 7.728302-131.381132-15.456604v7.728302c7.728302 27.049057 30.913208 57.962264 38.641509 61.826415 7.728302 3.864151 11.592453 15.456604 11.592453 27.049056-3.864151 11.592453-15.456604 15.456604-23.184906 15.456604-3.864151 0-85.011321-15.456604-146.837736-88.875472-96.603774 57.962264-158.430189 65.690566-162.294339 65.690567-7.728302 0-19.320755-3.864151-23.184906-15.456604-3.864151-7.728302 0-19.320755 7.728302-23.184906 3.864151-3.864151 135.245283-88.875472 135.245283-270.490566 0-23.184906 0-42.50566-3.864151-61.826415C239.577358 123.169811 119.788679 277.735849 119.788679 455.486792c0 212.528302 173.886792 386.415094 386.415095 386.415095s386.415094-173.886792 386.415094-386.415095c7.728302-173.886792-112.060377-328.45283-282.083019-374.822641"  horiz-adv-x="1024" />

    
    <glyph glyph-name="toupiao" unicode="&#58899;" d="M953.2672-128H70.7328C31.6672-128 0-95.872 0-56.2688v311.552c0 39.6032 31.6672 71.7056 70.7328 71.7056h238.0544v-53.504h-238.08c-9.472 0-17.92-8.576-17.92-18.2272v-311.552c0-9.6 8.448-18.176 17.92-18.176h882.56c9.4976 0 17.9456 8.576 17.9456 18.176v311.552c0 9.6512-8.448 18.2016-17.92 18.2016h-306.688v53.5296h306.688c39.04 0 70.7072-32.1024 70.7072-71.7312v-311.552C1024-95.8464 992.3328-128 953.2672-128zM423.936 144.9984L141.9776 431.36c-12.1344 12.3136-12.1344 32.6656 0 45.5168L545.792 886.3744c5.7856 5.888 13.7216 9.6256 22.1696 9.6256 8.448 0 16.3584-3.2 22.1696-9.6256l312.4736-316.9024c12.1344-12.288 12.1344-32.64 0-45.4912L528.896 144.9984h247.04c14.7712 0 26.368-11.776 26.368-26.7776 0-14.976-11.5968-26.752-26.368-26.752H248.064c-14.7712 0-26.368 11.776-26.368 26.752 0 15.0016 11.5968 26.7776 26.368 26.7776h175.8464zM194.2528 453.8624l282.368-286.3872 373.7088 378.9824-282.368 286.3872L194.2528 453.8624z m296.6272-85.6576c-13.7216 0-27.4432 5.376-37.9904 15.5392l-0.512 0.512-85.5296 87.808a27.776 27.776 0 0 0 0 37.9904 26.8288 26.8288 0 0 0 37.4784 0l85.504-87.2448c1.0496-0.5376 1.5872-0.5376 2.0992-0.5376l126.6944 128.4608a25.856 25.856 0 0 0 37.4784 0 26.752 26.752 0 0 0 0-37.9904L529.408 384.256a53.504 53.504 0 0 0-38.528-16.0512z"  horiz-adv-x="1024" />

    


  </font>
</defs>
</svg>
